<svg width="32" height="32" viewBox="0 0 32 32" fill="none" xmlns="http://www.w3.org/2000/svg">
<g clip-path="url(#clip0_184_3147)">
<path d="M8.71373 4H28.0004C28.354 4 28.6932 4.14048 28.9432 4.39052C29.1933 4.64057 29.3337 4.97971 29.3337 5.33333V26.6667C29.3337 27.0203 29.1933 27.3594 28.9432 27.6095C28.6932 27.8595 28.354 28 28.0004 28H8.71373C8.49427 28 8.2782 27.9459 8.08469 27.8424C7.89117 27.7389 7.7262 27.5892 7.6044 27.4067L0.493731 16.74C0.347545 16.5209 0.269531 16.2634 0.269531 16C0.269531 15.7366 0.347545 15.4791 0.493731 15.26L7.6044 4.59333C7.7262 4.41078 7.89117 4.26111 8.08469 4.15761C8.2782 4.0541 8.49427 3.99997 8.71373 4ZM9.42706 6.66667L3.20573 16L9.42706 25.3333H26.6671V6.66667H9.42706ZM17.3337 14.1147L21.1044 10.3427L22.9911 12.2293L19.2191 16L22.9911 19.7707L21.1044 21.6573L17.3337 17.8853L13.5631 21.6573L11.6764 19.7707L15.4484 16L11.6764 12.2293L13.5631 10.3427L17.3337 14.1147Z" fill="#1B1725"/>
</g>
<defs>
<clipPath id="clip0_184_3147">
<rect width="32" height="32" fill="white"/>
</clipPath>
</defs>
</svg>
