<svg width="32" height="32" viewBox="0 0 32 32" fill="none" xmlns="http://www.w3.org/2000/svg">
<rect width="32" height="32" rx="16" fill="#DBE8DB"/>
<path d="M16.0013 14.001C15.2649 14.001 14.668 14.4487 14.668 15.001C14.668 15.5533 15.2649 16.001 16.0013 16.001C16.7376 16.001 17.3346 16.4487 17.3346 17.001C17.3346 17.5533 16.7376 18.001 16.0013 18.001M16.0013 14.001C16.5818 14.001 17.0757 14.2793 17.2587 14.6677M16.0013 14.001V13.3343M16.0013 18.001C15.4207 18.001 14.9268 17.7227 14.7438 17.3343M16.0013 18.001V18.6677" stroke="#007C01" stroke-linecap="round"/>
<path d="M17.0003 9.66763C17.0003 9.66763 16.4563 9.66763 16.0003 9.66763C13.0148 9.66763 11.522 9.66763 10.5945 10.5951C9.66699 11.5226 9.66699 13.0154 9.66699 16.001C9.66699 18.9865 9.66699 20.4793 10.5945 21.4069C11.522 22.3343 13.0148 22.3343 16.0003 22.3343C18.9859 22.3343 20.4787 22.3343 21.4062 21.4069C22.3337 20.4793 22.3337 18.9865 22.3337 16.001C22.3337 15.5451 22.3337 15.001 22.3337 15.001" stroke="#007C01" stroke-linecap="round"/>
<path d="M19 12.9995L21.7839 10.214M22.3333 12.6517L22.2545 10.5907C22.2545 10.1049 21.9645 9.80225 21.4361 9.76407L19.3535 9.66617" stroke="#007C01" stroke-linecap="round" stroke-linejoin="round"/>
</svg>
