<svg width="32" height="32" viewBox="0 0 32 32" fill="none" xmlns="http://www.w3.org/2000/svg">
<rect width="32" height="32" rx="16" fill="#DBE8DB"/>
<path d="M11.333 17H9.99967C9.63149 17 9.33301 17.2985 9.33301 17.6667V22C9.33301 22.3682 9.63149 22.6667 9.99967 22.6667H11.333C11.7012 22.6667 11.9997 22.3682 11.9997 22V17.6667C11.9997 17.2985 11.7012 17 11.333 17Z" stroke="#007C01" stroke-linecap="round" stroke-linejoin="round"/>
<path d="M12 17.6667H15.8333C16.2936 17.6667 16.6667 18.0397 16.6667 18.5C16.6667 18.9603 16.2936 19.3333 15.8333 19.3333H14.3333" stroke="#007C01" stroke-linecap="round" stroke-linejoin="round"/>
<path d="M15.3333 19.3332H17.7945C18.3611 19.3332 18.9131 19.1527 19.3703 18.8178L21.1224 17.5343C21.5033 17.2389 22.0452 17.2725 22.3864 17.6128C22.7823 18.0075 22.7552 18.6552 22.3279 19.0157L19.3967 21.4015C18.9211 21.7885 18.3267 21.9999 17.7134 21.9999H12" stroke="#007C01" stroke-linecap="round" stroke-linejoin="round"/>
<path d="M20.6667 12.6667C20.6667 14.5076 19.1743 16 17.3333 16C15.4924 16 14 14.5076 14 12.6667C14 10.8257 15.4924 9.33334 17.3333 9.33334C19.1743 9.33334 20.6667 10.8257 20.6667 12.6667Z" stroke="#007C01" stroke-linecap="round" stroke-linejoin="round"/>
</svg>
