<svg width="32" height="32" viewBox="0 0 32 32" fill="none" xmlns="http://www.w3.org/2000/svg">
<rect width="32" height="32" rx="16" fill="#DBE8DB"/>
<path d="M10.333 20C10.333 19.0572 10.333 18.5858 10.6259 18.2929C10.9188 18 11.3902 18 12.333 18H12.6663C13.2949 18 13.6091 18 13.8044 18.1953C13.9997 18.3905 13.9997 18.7048 13.9997 19.3333V22.6667H10.333V20Z" stroke="#007C01" stroke-linecap="round" stroke-linejoin="round"/>
<path d="M18 20.6667C18 20.0381 18 19.7239 18.1953 19.5286C18.3905 19.3333 18.7048 19.3333 19.3333 19.3333H19.6667C20.6095 19.3333 21.0809 19.3333 21.3738 19.6262C21.6667 19.9191 21.6667 20.3905 21.6667 21.3333V22.6667H18V20.6667Z" stroke="#007C01" stroke-linecap="round" stroke-linejoin="round"/>
<path d="M9.33301 22.6667H22.6663" stroke="#007C01" stroke-linecap="round" stroke-linejoin="round"/>
<path d="M14 18.6667C14 17.7239 14 17.2525 14.2929 16.9595C14.5858 16.6667 15.0572 16.6667 16 16.6667C16.9428 16.6667 17.4142 16.6667 17.7071 16.9595C18 17.2525 18 17.7239 18 18.6667V22.6667H14V18.6667Z" stroke="#007C01" stroke-linecap="round" stroke-linejoin="round"/>
<path d="M16.4604 9.71844L16.9297 10.6648C16.9937 10.7965 17.1643 10.9228 17.3083 10.947L18.1589 11.0895C18.7028 11.1809 18.8308 11.5788 18.4388 11.9713L17.7775 12.6381C17.6656 12.751 17.6043 12.9687 17.6389 13.1247L17.8282 13.95C17.9775 14.6033 17.6336 14.856 17.0603 14.5146L16.2631 14.0387C16.1191 13.9527 15.8818 13.9527 15.7351 14.0387L14.9379 14.5146C14.3673 14.856 14.0206 14.6006 14.17 13.95L14.3593 13.1247C14.3939 12.9687 14.3326 12.751 14.2206 12.6381L13.5594 11.9713C13.1701 11.5788 13.2954 11.1809 13.8393 11.0895L14.6899 10.947C14.8312 10.9228 15.0019 10.7965 15.0659 10.6648L15.5351 9.71844C15.7911 9.20496 16.2071 9.20496 16.4604 9.71844Z" stroke="#007C01" stroke-linecap="round" stroke-linejoin="round"/>
</svg>
