<svg width="57" height="56" viewBox="0 0 57 56" fill="none" xmlns="http://www.w3.org/2000/svg">
<circle cx="28.5" cy="28" r="28" fill="#1B1725"/>
<g clip-path="url(#clip0_184_2312)">
<path d="M33.4996 29V30C33.4996 32.77 32.8356 35.445 31.5846 37.846L31.3576 38.266L29.6106 37.292C30.7706 35.212 31.4206 32.882 31.4926 30.456L31.4996 30V29H33.4996ZM27.4996 26H29.4996V30L29.4946 30.379C29.419 33.1167 28.4768 35.7598 26.8036 37.928L26.5726 38.218L25.0226 36.954C26.549 35.0899 27.4176 32.7741 27.4936 30.366L27.4996 30V26ZM28.4996 22C29.8257 22 31.0975 22.5268 32.0352 23.4645C32.9728 24.4021 33.4996 25.6739 33.4996 27H31.4996C31.4996 26.2043 31.1836 25.4413 30.621 24.8787C30.0583 24.3161 29.2953 24 28.4996 24C27.704 24 26.9409 24.3161 26.3783 24.8787C25.8157 25.4413 25.4996 26.2043 25.4996 27V30C25.4996 32.235 24.6796 34.344 23.2286 35.977L23.0166 36.207L21.5686 34.827C22.7386 33.6029 23.4229 31.9948 23.4936 30.303L23.4996 30V27C23.4996 25.6739 24.0264 24.4021 24.9641 23.4645C25.9018 22.5268 27.1736 22 28.4996 22V22ZM28.4996 18C30.8866 18 33.1758 18.9482 34.8636 20.636C36.5514 22.3239 37.4996 24.613 37.4996 27V30C37.4996 31.698 37.2976 33.37 36.9026 34.99L36.7636 35.529L34.8336 35.003C35.2256 33.566 35.4466 32.081 35.4916 30.568L35.4996 30V27C35.4996 25.7009 35.1381 24.4274 34.4555 23.322C33.7729 22.2166 32.7962 21.3231 31.6346 20.7412C30.473 20.1594 29.1725 19.9123 27.8785 20.0276C26.5845 20.1429 25.3481 20.616 24.3076 21.394L22.8826 19.968C24.4761 18.6913 26.4578 17.997 28.4996 18V18ZM21.4676 21.383L22.8936 22.808C22.036 23.9512 21.5507 25.3306 21.5036 26.759L21.4996 27L21.5036 29C21.5036 30.12 21.2396 31.203 20.7416 32.177L20.5856 32.467L18.8486 31.475C19.2286 30.81 19.4506 30.068 19.4946 29.292L19.5036 29V27C19.4977 24.9583 20.1908 22.9761 21.4676 21.383V21.383Z" fill="#00FFC5"/>
</g>
<defs>
<clipPath id="clip0_184_2312">
<rect width="24" height="24" fill="white" transform="translate(16.5 16)"/>
</clipPath>
</defs>
</svg>
