<?xml version="1.0" encoding="utf-8"?>
<!-- Generator: Adobe Illustrator 26.0.1, SVG Export Plug-In . SVG Version: 6.00 Build 0)  -->
<svg version="1.1" id="Layer_1" xmlns="http://www.w3.org/2000/svg" xmlns:xlink="http://www.w3.org/1999/xlink" x="0px" y="0px"
	 viewBox="0 0 640 183.6" style="enable-background:new 0 0 640 183.6;" xml:space="preserve">
<g>
	<path d="M618,77.4C590,55,540.2,59,496.7,85.1V70h-85.3c0.2-24.9,8-24.8,21.5-24.8V0.4C375.8-4,365,32.7,364.9,70h-14v35.5h14.4
		v75.8H412v-75.8h37.8v75.8h47V128c22.7-16.6,83.8-45.4,95.5-11.6c-5.4,0-10.8-0.1-16.1,0c-8.3,0.3-16.4,1.3-24.3,4
		c-7.2,2.5-13.8,6-17.8,12.7c-5.9,9.7-6.4,19.9-1.5,30.2c2.7,5.7,6.6,10.3,12,13.8c7.5,4.8,15.8,6.5,24.5,6.5
		c6-0.1,11.9-0.9,17.1-4.4c2.5-1.7,4.6-3.9,7-6v8.1h47c0,0,0-34.8,0-51.1C640,101.9,631.2,87.9,618,77.4z M590.1,155
		c-3.9,6.2-14.1,6.5-18.7,2.4c-4.6-4.2-3.8-12.1,1.9-14.7c3-1.4,6.3-2.2,9.6-2.7c3.1-0.5,6.2-0.5,9.7-0.7
		C592.6,144.9,593.1,150.2,590.1,155z"/>
	<path d="M268.7,62.8c-79-2.7-90.2,77.6-124.9,78.2c-8.9,0.1-15.1-8.7-15.1-17.7V70H82v53.4c0,9.8-7.9,17.7-17.7,17.7
		c-9.7,0-17.7-7.9-17.7-17.7V70H0v49.2c0,35.5,28.8,64.4,64.4,64.4c15.6,0,29.9-5.5,41-14.8c11.4,10.4,25.7,14.6,38.4,14.8
		c56,0,66.8-60,101.1-78.2c12.3-6.1,39.7-8.9,46.2,11c-5.4,0-10.8-0.1-16.1,0c-8.3,0.3-16.4,1.3-24.3,4c-7.2,2.5-13.8,6-17.8,12.7
		c-5.9,9.7-6.4,19.9-1.5,30.2c2.7,5.7,6.6,10.3,12,13.8c7.5,4.8,15.8,6.5,24.5,6.5c6-0.1,11.9-0.9,17.1-4.4c2.5-1.7,4.6-3.9,7-6v8.1
		h47c0,0,0-42.7,0-51.1C339.9,86.1,311.5,63,268.7,62.8z M289,155c-3.9,6.2-14.1,6.5-18.7,2.4c-4.6-4.2-3.8-12.1,1.9-14.7
		c3-1.4,6.3-2.2,9.6-2.7c3.1-0.5,6.2-0.5,9.7-0.7C291.5,144.9,292,150.2,289,155z"/>
</g>
</svg>
