<svg width="234" height="27" viewBox="0 0 234 27" fill="none" xmlns="http://www.w3.org/2000/svg">
<path fill-rule="evenodd" clip-rule="evenodd" d="M111.951 0.774358C97.5198 0.638705 69.5381 5.2387 43.0757 12.097C40.9418 12.6501 38.1305 13.3793 36.8284 13.7175C19.2702 18.2777 9.79862 21.2429 3.11553 24.2721C0.507319 25.4544 0.280631 25.6027 0.320066 26.101C0.377695 26.8283 0.796243 26.7398 5.61153 24.9828C10.5943 23.1647 15.0406 21.8908 27.2124 18.794C67.8933 8.4438 86.8237 4.87377 107.906 3.57626C112.038 3.32194 118.589 3.77232 118.559 4.30853C118.519 5.02477 114.271 7.23778 104.475 11.6454C92.423 17.0678 85.068 20.7005 84.3862 21.5672C83.2211 23.048 84.3457 24.2264 86.9217 24.2241C88.3937 24.2228 88.7305 24.1784 95.5399 23.0876C115.091 19.9559 127.555 18.5085 144.398 17.4135C170.049 15.7459 186.346 15.5125 216.912 16.3744C227.896 16.6842 228.465 16.6737 230.526 16.1239C231.321 15.912 232.266 15.7144 232.628 15.6846C233.476 15.6151 233.474 15.4656 232.623 15.3078C232.253 15.2391 231.408 14.9626 230.746 14.6933C229.113 14.0293 228.011 13.9378 218.489 13.6756C186.567 12.7966 169.733 13.0124 145.268 14.614C132.401 15.4563 126.659 15.9838 117.256 17.1872C110.829 18.0098 93.8446 20.5012 91.4587 20.9714C90.1569 21.2279 95.9011 18.4428 105.969 13.936C118.705 8.23505 121.266 6.63656 121.408 4.30169C121.568 1.66877 119.357 0.844131 111.951 0.774358Z" fill="#00FFC5"/>
</svg>
