<svg width="17" height="16" viewBox="0 0 17 16" fill="none" xmlns="http://www.w3.org/2000/svg">
<path d="M13.1233 9.29686L12.6764 6.86453C12.4834 5.81397 12.3869 5.28868 12.0047 4.97767C11.6225 4.66666 11.0735 4.66666 9.97547 4.66666H7.02457C5.92653 4.66666 5.37752 4.66666 4.99532 4.97767C4.61312 5.28868 4.51661 5.81397 4.32359 6.86453L3.87671 9.29686C3.47605 11.4775 3.27573 12.5678 3.89259 13.2839C4.50946 14 5.64903 14 7.9282 14H9.0718C11.351 14 12.4905 14 13.1074 13.2839C13.7243 12.5678 13.5239 11.4775 13.1233 9.29686Z" stroke="#010E01" stroke-linecap="round"/>
<path d="M8.49967 7V11.3333M6.83301 10L8.49967 11.6667L10.1663 10" stroke="#010E01" stroke-linecap="round" stroke-linejoin="round"/>
<path d="M14.4997 7.33333C14.6042 7.2806 14.6951 7.21413 14.7758 7.13033C15.1663 6.725 15.1663 6.07262 15.1663 4.76784C15.1663 3.46307 15.1663 2.81068 14.7758 2.40534C14.3853 2 13.7567 2 12.4997 2H4.49967C3.24259 2 2.61405 2 2.22353 2.40534C1.83301 2.81068 1.83301 3.46307 1.83301 4.76784C1.83301 6.07262 1.83301 6.725 2.22353 7.13033C2.30426 7.21413 2.39515 7.2806 2.49967 7.33333" stroke="#010E01" stroke-linecap="round"/>
</svg>
